<svg width="743" height="184" viewBox="0 0 743 184" fill="none" xmlns="http://www.w3.org/2000/svg">
<path d="M692.578 132.597C706.049 132.597 718.601 127.086 720.591 118.515C721.204 124.026 724.264 128.159 728.705 130.3C732.684 132.292 737.583 132.597 742.328 130.76V116.983C740.338 117.442 738.195 117.596 736.511 116.218C734.827 114.84 733.602 111.779 733.602 106.115V79.0207C733.602 62.3353 721.05 51.9261 699.161 51.9261C680.179 51.9261 665.789 59.733 663.953 71.5199L678.649 75.8061C679.873 69.8361 687.067 65.7029 698.243 65.7029C708.957 65.7029 717.377 69.2237 717.377 75.0407C717.377 80.5514 709.722 83.1537 690.742 84.5314C672.678 85.9091 661.656 94.6344 661.656 108.717C661.656 122.648 672.525 132.597 692.578 132.597ZM692.578 118.974C683.547 118.974 678.036 115.147 678.036 108.871C678.036 102.901 683.241 98.7675 691.659 98.1552C705.895 97.2368 714.622 95.5529 717.53 92.1853C717.53 108.411 707.12 118.974 692.578 118.974Z" fill="white"/>
<path d="M692.578 132.597C706.049 132.597 718.601 127.086 720.591 118.515C721.204 124.026 724.264 128.159 728.705 130.3C732.684 132.292 737.583 132.597 742.328 130.76V116.983C740.338 117.442 738.195 117.596 736.511 116.218C734.827 114.84 733.602 111.779 733.602 106.115V79.0207C733.602 62.3353 721.05 51.9261 699.161 51.9261C680.179 51.9261 665.789 59.733 663.953 71.5199L678.649 75.8061C679.873 69.8361 687.067 65.7029 698.243 65.7029C708.957 65.7029 717.377 69.2237 717.377 75.0407C717.377 80.5514 709.722 83.1537 690.742 84.5314C672.678 85.9091 661.656 94.6344 661.656 108.717C661.656 122.648 672.525 132.597 692.578 132.597ZM692.578 118.974C683.547 118.974 678.036 115.147 678.036 108.871C678.036 102.901 683.241 98.7675 691.659 98.1552C705.895 97.2368 714.622 95.5529 717.53 92.1853C717.53 108.411 707.12 118.974 692.578 118.974Z" fill="black"/>
<path d="M615.323 52.4367C603.452 52.4367 592.722 58.0346 587.431 66.6468C583.282 57.6041 573.841 52.5802 563.684 52.4367C553.53 52.4367 544.947 57.6039 540.37 65.7856V54.5897H524.92V130.608H540.655V89.0384C540.655 75.8331 548.666 67.2209 560.11 67.2209C570.98 67.2209 577.845 75.259 577.845 88.6079V130.608H593.581V88.7514C593.581 75.6895 601.449 67.2209 612.892 67.2209C623.62 67.2209 630.485 74.6848 630.485 88.3207V130.608H646.221V85.737C646.221 75.546 643.36 67.3644 637.638 61.4794C632.06 55.4509 624.621 52.4367 615.323 52.4367Z" fill="white"/>
<path d="M615.323 52.4367C603.452 52.4367 592.722 58.0346 587.431 66.6468C583.282 57.6041 573.841 52.5802 563.684 52.4367C553.53 52.4367 544.947 57.6039 540.37 65.7856V54.5897H524.92V130.608H540.655V89.0384C540.655 75.8331 548.666 67.2209 560.11 67.2209C570.98 67.2209 577.845 75.259 577.845 88.6079V130.608H593.581V88.7514C593.581 75.6895 601.449 67.2209 612.892 67.2209C623.62 67.2209 630.485 74.6848 630.485 88.3207V130.608H646.221V85.737C646.221 75.546 643.36 67.3644 637.638 61.4794C632.06 55.4509 624.621 52.4367 615.323 52.4367Z" fill="black"/>
<path d="M260.761 132.597C285.254 132.597 301.786 116.066 301.786 91.726C301.786 67.5398 285.56 52.0791 260.761 52.0791C235.964 52.0791 219.584 67.693 219.584 91.726C219.584 116.066 236.423 132.597 260.761 132.597ZM260.761 117.902C246.067 117.902 235.964 107.034 235.964 91.726C235.964 76.5714 245.759 66.7746 260.761 66.7746C275.916 66.7746 285.408 76.5714 285.408 91.726C285.408 107.187 275.456 117.902 260.761 117.902Z" fill="white"/>
<path d="M260.761 132.597C285.254 132.597 301.786 116.066 301.786 91.726C301.786 67.5398 285.56 52.0791 260.761 52.0791C235.964 52.0791 219.584 67.693 219.584 91.726C219.584 116.066 236.423 132.597 260.761 132.597ZM260.761 117.902C246.067 117.902 235.964 107.034 235.964 91.726C235.964 76.5714 245.759 66.7746 260.761 66.7746C275.916 66.7746 285.408 76.5714 285.408 91.726C285.408 107.187 275.456 117.902 260.761 117.902Z" fill="black"/>
<path d="M374.161 51.9261C361.457 51.9261 350.589 57.1306 343.853 65.8561V52.9976H320.586V66.3153H343.547C338.955 72.4383 336.352 80.2452 336.352 89.2767V117.29H321.045V130.608H372.785V117.29H352.884V88.8175C352.884 76.5714 362.222 67.3868 374.161 67.3868C383.805 67.3868 390.081 73.663 391.919 81.4698L406.92 76.1121C403.706 61.5699 391.46 51.9261 374.161 51.9261Z" fill="white"/>
<path d="M374.161 51.9261C361.457 51.9261 350.589 57.1306 343.853 65.8561V52.9976H320.586V66.3153H343.547C338.955 72.4383 336.352 80.2452 336.352 89.2767V117.29H321.045V130.608H372.785V117.29H352.884V88.8175C352.884 76.5714 362.222 67.3868 374.161 67.3868C383.805 67.3868 390.081 73.663 391.919 81.4698L406.92 76.1121C403.706 61.5699 391.46 51.9261 374.161 51.9261Z" fill="black"/>
<path d="M455.484 132.597C468.955 132.597 481.507 127.086 483.497 118.515C484.108 124.026 487.17 128.159 491.609 130.3C495.59 132.292 500.488 132.597 505.234 130.76V116.983C503.244 117.442 501.101 117.596 499.417 116.218C497.733 114.84 496.509 111.779 496.509 106.115V79.0207C496.509 62.3353 483.956 51.9261 462.066 51.9261C443.085 51.9261 428.695 59.733 426.858 71.5199L441.553 75.8061C442.778 69.8361 449.973 65.7029 461.147 65.7029C471.863 65.7029 480.283 69.2237 480.283 75.0407C480.283 80.5514 472.629 83.1537 453.646 84.5314C435.583 85.9091 424.562 94.6344 424.562 108.717C424.562 122.648 435.431 132.597 455.484 132.597ZM455.484 118.974C446.451 118.974 440.942 115.147 440.942 108.871C440.942 102.901 446.146 98.7675 454.565 98.1552C468.801 97.2368 477.526 95.5529 480.435 92.1853C480.435 108.411 470.026 118.974 455.484 118.974Z" fill="white"/>
<path d="M455.484 132.597C468.955 132.597 481.507 127.086 483.497 118.515C484.108 124.026 487.17 128.159 491.609 130.3C495.59 132.292 500.488 132.597 505.234 130.76V116.983C503.244 117.442 501.101 117.596 499.417 116.218C497.733 114.84 496.509 111.779 496.509 106.115V79.0207C496.509 62.3353 483.956 51.9261 462.066 51.9261C443.085 51.9261 428.695 59.733 426.858 71.5199L441.553 75.8061C442.778 69.8361 449.973 65.7029 461.147 65.7029C471.863 65.7029 480.283 69.2237 480.283 75.0407C480.283 80.5514 472.629 83.1537 453.646 84.5314C435.583 85.9091 424.562 94.6344 424.562 108.717C424.562 122.648 435.431 132.597 455.484 132.597ZM455.484 118.974C446.451 118.974 440.942 115.147 440.942 108.871C440.942 102.901 446.146 98.7675 454.565 98.1552C468.801 97.2368 477.526 95.5529 480.435 92.1853C480.435 108.411 470.026 118.974 455.484 118.974Z" fill="black"/>
<mask id="mask0_1_2" style="mask-type:luminance" maskUnits="userSpaceOnUse" x="0" y="0" width="183" height="184">
<path d="M182.244 0.677124H0.675781V183.709H182.244V0.677124Z" fill="white"/>
</mask>
<g mask="url(#mask0_1_2)">
<path fill-rule="evenodd" clip-rule="evenodd" d="M93.056 47.4226C99.7331 41.4929 108.967 38.4949 117.891 38.9069C122.987 39.1421 127.559 40.4485 131.322 42.6136C134.574 44.3577 137.838 47.5584 140.526 51.3031C145.263 55.4383 152.383 55.9477 157.726 52.1357C163.971 47.6789 165.423 39.0028 160.966 32.7572C150.864 18.6015 134.827 11.8734 119.172 11.1508C103.537 10.4289 86.9794 15.573 74.4391 26.7954C74.3972 26.833 74.3555 26.8709 74.3141 26.9087C49.484 49.2257 47.3685 87.4684 69.66 112.378C74.7768 118.094 83.5598 118.583 89.2773 113.465C94.9949 108.348 95.4819 99.5653 90.3651 93.8478C78.2839 80.3481 79.4447 59.5953 92.9521 47.5165C92.987 47.4854 93.0216 47.4541 93.056 47.4226Z" fill="url(#paint0_linear_1_2)"/>
<mask id="mask1_1_2" style="mask-type:alpha" maskUnits="userSpaceOnUse" x="54" y="11" width="110" height="107">
<path fill-rule="evenodd" clip-rule="evenodd" d="M93.0591 47.4206C99.7358 41.4922 108.969 38.4946 117.892 38.9066C122.987 39.1418 127.559 40.4483 131.323 42.6134C134.575 44.3575 137.838 47.5582 140.527 51.3029C145.264 55.4381 152.384 55.9475 157.727 52.1355C163.972 47.6786 165.423 39.0026 160.966 32.757C150.865 18.6013 134.828 11.8732 119.173 11.1506C103.538 10.4287 86.9801 15.5728 74.44 26.7952C74.397 26.8337 74.3543 26.8723 74.3121 26.9113C49.4845 49.2286 47.3701 87.4693 69.6607 112.378C74.7775 118.094 83.5605 118.583 89.278 113.465C94.9956 108.348 95.4826 99.5653 90.3658 93.8477C78.2846 80.348 79.4454 59.5953 92.9528 47.5165C92.9885 47.4846 93.0238 47.4526 93.0591 47.4206Z" fill="url(#paint1_linear_1_2)"/>
</mask>
<g mask="url(#mask1_1_2)">
<g style="mix-blend-mode:multiply">
<path d="M75.2492 15.4001L28.052 61.5516L114.299 74.9583L149.009 47.7076V29.4285L75.2492 15.4001Z" fill="url(#paint2_linear_1_2)"/>
</g>
</g>
<path fill-rule="evenodd" clip-rule="evenodd" d="M50.7312 25.4666C55.8457 31.1862 55.3551 39.969 49.6356 45.0834C23.4902 68.4629 21.2502 108.602 44.6309 134.75C49.7454 140.47 49.2549 149.252 43.5353 154.365C37.8157 159.481 29.0329 158.991 23.9185 153.271C-9.68988 115.685 -6.47181 57.9808 31.1144 24.371C36.8339 19.2565 45.6167 19.747 50.7312 25.4666Z" fill="url(#paint3_linear_1_2)"/>
<path fill-rule="evenodd" clip-rule="evenodd" d="M25.0143 133.654C30.7339 128.54 39.5167 129.03 44.6311 134.75C68.0105 160.894 108.15 163.135 134.297 139.754C140.016 134.64 148.8 135.131 153.914 140.85C159.028 146.57 158.537 155.352 152.818 160.466C115.234 194.074 57.5285 190.857 23.9187 153.271C18.8042 147.551 19.2947 138.767 25.0143 133.654Z" fill="url(#paint4_linear_1_2)"/>
<path fill-rule="evenodd" clip-rule="evenodd" d="M150.288 40.2682C156.918 36.4048 165.423 38.6469 169.287 45.276C190.36 81.4323 186.166 130.648 152.833 160.464C147.113 165.578 138.331 165.089 133.215 159.37C128.099 153.652 128.59 144.868 134.308 139.754C156.731 119.697 160.463 85.317 145.281 59.2668C141.419 52.6377 143.659 44.1317 150.288 40.2682Z" fill="url(#paint5_linear_1_2)"/>
<mask id="mask2_1_2" style="mask-type:alpha" maskUnits="userSpaceOnUse" x="129" y="38" width="54" height="127">
<path fill-rule="evenodd" clip-rule="evenodd" d="M150.287 40.2682C156.916 36.4047 165.422 38.6467 169.285 45.2759C190.358 81.4321 186.165 130.646 152.831 160.464C147.111 165.578 138.329 165.089 133.213 159.37C128.098 153.652 128.588 144.868 134.306 139.752C156.729 119.697 160.461 85.3168 145.279 59.2667C141.417 52.6375 143.657 44.1316 150.287 40.2682Z" fill="url(#paint6_linear_1_2)"/>
</mask>
<g mask="url(#mask2_1_2)">
<g style="mix-blend-mode:multiply">
<path d="M144.76 97.2891L98.2888 145.754L166.407 165.139L195.614 94.8782L157.129 11.1857L153.694 81.1015L144.76 97.2891Z" fill="url(#paint7_linear_1_2)"/>
</g>
</g>
<path fill-rule="evenodd" clip-rule="evenodd" d="M153.081 24.1091L157.145 28.604L161.217 33.0989C161.117 32.9481 161.01 32.7919 160.897 32.6314L161.27 33.0337C161.102 32.811 160.791 32.4226 160.379 31.9233C158.519 29.4569 155.558 26.2456 153.081 24.1091Z" fill="#F97CBF"/>
<path fill-rule="evenodd" clip-rule="evenodd" d="M70.7645 92.7569C76.4841 87.6424 85.2669 88.1328 90.3815 93.8524C102.46 107.36 123.214 108.521 136.712 96.4393C142.43 91.3227 151.214 91.8097 156.33 97.5273C161.447 103.245 160.96 112.028 155.242 117.144C130.295 139.47 91.9711 137.314 69.669 112.374C64.5546 106.654 65.0451 97.8716 70.7645 92.7569Z" fill="url(#paint8_linear_1_2)"/>
<path fill-rule="evenodd" clip-rule="evenodd" d="M160.01 31.5619C154.893 25.8444 146.111 25.3573 140.393 30.474C135.442 34.9048 134.413 42.0845 137.549 47.6424C139.273 49.5059 140.878 51.6508 142.249 53.9065C151.077 67.2614 149.008 85.4325 136.718 96.4226C130.998 101.537 130.507 110.321 135.623 116.04C140.737 121.758 149.519 122.249 155.239 117.135C180.179 94.833 182.337 56.5098 160.01 31.5619Z" fill="url(#paint9_linear_1_2)"/>
<path fill-rule="evenodd" clip-rule="evenodd" d="M136.389 46.4512C116.79 23.5316 75.656 21.8301 49.6363 45.0972C43.9168 50.2116 35.134 49.7211 30.0195 44.0015C24.9049 38.282 25.3954 29.4992 31.1151 24.3847C67.8709 -8.48272 130.682 -8.48345 160.858 32.6197C165.397 38.8047 164.065 47.4995 157.88 52.0401C152.545 55.9563 145.344 55.5033 140.551 51.3369C139.273 49.5529 137.866 47.8915 136.389 46.4512Z" fill="url(#paint10_linear_1_2)"/>
</g>
<defs>
<linearGradient id="paint0_linear_1_2" x1="76.1058" y1="92.6257" x2="85.4703" y2="32.4261" gradientUnits="userSpaceOnUse">
<stop stop-color="#F6D25B"/>
<stop offset="1" stop-color="#F8B580"/>
</linearGradient>
<linearGradient id="paint1_linear_1_2" x1="76.1065" y1="92.6256" x2="85.471" y2="32.4259" gradientUnits="userSpaceOnUse">
<stop stop-color="#F6D25B"/>
<stop offset="1" stop-color="#F8B580"/>
</linearGradient>
<linearGradient id="paint2_linear_1_2" x1="118.077" y1="4.0475" x2="64.1408" y2="66.3106" gradientUnits="userSpaceOnUse">
<stop stop-color="#895200"/>
<stop offset="0.833333" stop-color="#E28800" stop-opacity="0"/>
</linearGradient>
<linearGradient id="paint3_linear_1_2" x1="27.4718" y1="34.7271" x2="34.1479" y2="132.429" gradientUnits="userSpaceOnUse">
<stop stop-color="#ED51F2"/>
<stop offset="1" stop-color="#B771F2"/>
</linearGradient>
<linearGradient id="paint4_linear_1_2" x1="27.2777" y1="138.11" x2="130.876" y2="144.35" gradientUnits="userSpaceOnUse">
<stop stop-color="#B971F3"/>
<stop offset="1" stop-color="#8F6FDE"/>
</linearGradient>
<linearGradient id="paint5_linear_1_2" x1="156.372" y1="60.418" x2="140.328" y2="155.37" gradientUnits="userSpaceOnUse">
<stop stop-color="#6A4BB2"/>
<stop offset="1" stop-color="#9170E0"/>
</linearGradient>
<linearGradient id="paint6_linear_1_2" x1="156.371" y1="51.8228" x2="137.643" y2="154.162" gradientUnits="userSpaceOnUse">
<stop stop-color="#6A4BB2"/>
<stop offset="1" stop-color="#9170E0"/>
</linearGradient>
<linearGradient id="paint7_linear_1_2" x1="133.421" y1="91.0894" x2="157.565" y2="142.018" gradientUnits="userSpaceOnUse">
<stop stop-color="#542DA7"/>
<stop offset="0.833333" stop-color="#5F2EAF" stop-opacity="0"/>
</linearGradient>
<linearGradient id="paint8_linear_1_2" x1="83.4638" y1="93.2941" x2="130.954" y2="106.672" gradientUnits="userSpaceOnUse">
<stop stop-color="#F6D25B"/>
<stop offset="1" stop-color="#F9A38F"/>
</linearGradient>
<linearGradient id="paint9_linear_1_2" x1="151.768" y1="56.2052" x2="153.765" y2="106.779" gradientUnits="userSpaceOnUse">
<stop stop-color="#FA80B7"/>
<stop offset="1" stop-color="#F8A48D"/>
</linearGradient>
<linearGradient id="paint10_linear_1_2" x1="43.9997" y1="31.0883" x2="146.34" y2="36.4394" gradientUnits="userSpaceOnUse">
<stop stop-color="#E755F3"/>
<stop offset="1" stop-color="#F97FB6"/>
</linearGradient>
</defs>
</svg>
